<svg xmlns="http://www.w3.org/2000/svg" version="1.1" xmlns:xlink="http://www.w3.org/1999/xlink" xmlns:svgjs="http://svgjs.dev/svgjs" width="1000" height="1000" viewBox="0 0 1000 1000"><g transform="matrix(1,0,0,1,0,0)"><svg viewBox="0 0 280 280" data-background-color="#010c80" preserveAspectRatio="xMidYMid meet" height="1000" width="1000" xmlns="http://www.w3.org/2000/svg" xmlns:xlink="http://www.w3.org/1999/xlink"><g id="tight-bounds" transform="matrix(1,0,0,1,0,0)"><svg viewBox="0 0 280 280" height="280" width="280"><g><svg viewBox="0 0 280 280" height="280" width="280"><g><svg viewBox="0 0 280 280" height="280" width="280"><g id="textblocktransform"><svg viewBox="0 0 280 280" height="280" width="280" id="textblock"><g><svg viewBox="0 0 280 280" height="280" width="280"><g transform="matrix(1,0,0,1,90.50252531694167,90.50252531694167)"><svg viewBox="0 0 98.99494936611666 98.99494936611666" height="98.99494936611666" width="98.99494936611666"><g><circle r="49" cx="49.49747468305833" cy="49.49747468305833" fill="#fe9677" data-fill-palette-color="accent"></circle></g></svg></g><path d="M25.562 182.648v0l-4.445 0.211 2.861 7.888 3.546-2.687c1.295-1.014 2.594-1.998 3.896-2.952 1.294-0.958 2.627-1.925 3.999-2.904v0l-0.058-0.159c-1.671 0.153-3.309 0.28-4.913 0.38-1.613 0.097-3.242 0.171-4.886 0.223zM9.207 183.378l-1.234-3.404 29.482-0.642 1.368 3.771-23.041 18.405-1.293-3.564 7.112-5.38-3.469-9.567zM141.875 279.985l-4.13 0.015-9.043-27.902 3.791-0.014 4.526 15.058c0.518 1.674 0.973 3.219 1.364 4.635 0.384 1.422 0.849 2.953 1.394 4.594v0l0.169-0.001c0.506-1.645 0.956-3.18 1.35-4.604 0.394-1.418 0.827-2.966 1.3-4.644v0l4.413-15.092 3.622-0.013zM265.879 193.487l-1.26 3.299-26.096-9.967 5.745-15.043 2.786 1.065-4.485 11.743 8.827 3.371 3.798-9.945 2.786 1.065-3.798 9.944z" fill="#fe9677" data-fill-palette-color="primary"></path><path d="M14.885 101.027V101.027L18.431 103.714 21.292 95.826 16.847 95.616C15.203 95.564 13.576 95.487 11.964 95.384 10.357 95.289 8.714 95.178 7.034 95.05V95.05L6.976 95.209C8.357 96.163 9.695 97.115 10.992 98.066 12.292 99.026 13.59 100.013 14.885 101.027ZM27.906 110.949L26.671 114.354 3.63 95.949 4.998 92.178 34.48 92.82 33.188 96.384 24.28 95.955 20.811 105.522ZM141.041 27.984L136.911 27.968 128.075 0 131.866 0.014 136.28 15.106C136.786 16.784 137.229 18.332 137.61 19.75 137.983 21.175 138.437 22.709 138.969 24.354V24.354L139.139 24.355C139.657 22.714 140.118 21.182 140.523 19.761 140.927 18.345 141.372 16.801 141.857 15.126V15.126L146.383 0.068 150.004 0.081ZM245.788 101.17L244.528 97.87 270.625 87.904 276.37 102.947 273.583 104.011 269.098 92.267 260.272 95.638 264.07 105.583 261.283 106.647 257.485 96.703Z" fill="#fe9677" data-fill-palette-color="primary"></path><path d="M2.873 143.636c0-5.894 4.778-10.671 10.671-10.671 5.894 0 10.671 4.778 10.671 10.671 0 5.894-4.778 10.671-10.671 10.671-5.894 0-10.671-4.778-10.671-10.671zM254.294 143.636c0-5.894 4.778-10.671 10.671-10.671 5.894 0 10.671 4.778 10.671 10.671 0 5.894-4.778 10.671-10.671 10.671-5.894 0-10.671-4.778-10.671-10.671z" fill="#fe9677" data-fill-palette-color="primary"></path></svg></g></svg></g></svg></g></svg></g><defs></defs></svg><rect width="280" height="280" fill="none" stroke="none" visibility="hidden"></rect></g></svg></g></svg>