<svg xmlns="http://www.w3.org/2000/svg" version="1.1" xmlns:xlink="http://www.w3.org/1999/xlink" xmlns:svgjs="http://svgjs.dev/svgjs" width="1000" height="1000" viewBox="0 0 1000 1000"><g transform="matrix(1,0,0,1,0,0)"><svg viewBox="0 0 280 280" data-background-color="#ffffff" preserveAspectRatio="xMidYMid meet" height="1000" width="1000" xmlns="http://www.w3.org/2000/svg" xmlns:xlink="http://www.w3.org/1999/xlink"><g id="tight-bounds" transform="matrix(1,0,0,1,0,0)"><svg viewBox="0 0 280 280" height="280" width="280"><g><svg viewBox="0 0 280 280" height="280" width="280"><g><svg viewBox="0 0 280 280" height="280" width="280"><g id="textblocktransform"><svg viewBox="0 0 280 280" height="280" width="280" id="textblock"><g><svg viewBox="0 0 280 280" height="280" width="280"><g transform="matrix(1,0,0,1,90.50252531694167,90.50252531694167)"><svg viewBox="0 0 98.99494936611666 98.99494936611666" height="98.99494936611666" width="98.99494936611666"><g><circle r="49" cx="49.49747468305833" cy="49.49747468305833" fill="#a437db" data-fill-palette-color="accent"></circle></g></svg></g><path d="M8.387 180.535l30.292 1.143 0.813 2.17-22.103 20.7-1.023-2.73 6.909-6.462-4.41-11.764-9.441-0.289zM21.101 183.383l3.983 10.623 10.974-10.13zM126.259 251.912l2.876 0.026 9.788 24.625 10.185-24.447 2.866 0.025-11.823 27.859-2.517-0.022zM264.193 198.424l-1.039 2.552-25.899-10.544 6.922-17.001 2.266 0.923-5.882 14.448 9.518 3.875 4.959-12.182 2.118 0.863-4.959 12.181z" fill="#a437db" data-fill-palette-color="primary"></path><path d="M26.352 114.215L4.278 93.439 5.091 91.27 35.355 90.201 34.331 92.932 24.877 93.259 20.466 105.022 27.39 111.447ZM18.644 103.71L22.627 93.087 7.698 93.506ZM124.696 0.229L127.572 0.204 137.797 24.651 147.545 0.026 150.411 0 139.086 28.065 136.569 28.087ZM243.941 96.861L242.902 94.308 268.8 83.763 275.722 100.764 273.456 101.686 267.574 87.239 258.056 91.114 263.016 103.295 260.898 104.158 255.938 91.976Z" fill="#a437db" data-fill-palette-color="primary"></path><path d="M3.03 143.773c0-5.899 4.782-10.682 10.682-10.682 5.899 0 10.682 4.782 10.682 10.682 0 5.899-4.782 10.682-10.682 10.682-5.899 0-10.682-4.782-10.682-10.682zM254.701 143.773c0-5.899 4.782-10.682 10.681-10.682 5.899 0 10.682 4.782 10.682 10.682 0 5.899-4.782 10.682-10.682 10.682-5.899 0-10.682-4.782-10.681-10.682z" fill="#a437db" data-fill-palette-color="primary"></path></svg></g></svg></g></svg></g><g></g></svg></g><defs></defs></svg><rect width="280" height="280" fill="none" stroke="none" visibility="hidden"></rect></g></svg></g></svg>